<?xml version="1.0" encoding="UTF-8" standalone="no"?>
<!-- Created with Inkscape (http://www.inkscape.org/) -->
<svg
   xmlns:svg="http://www.w3.org/2000/svg"
   xmlns="http://www.w3.org/2000/svg"
   version="1.0"
   width="45"
   height="45"
   id="svg3128">
  <defs
     id="defs3130" />
  <g
     id="layer1">
    <rect
       width="45"
       height="45"
       x="0"
       y="0"
       id="rect3136"
       style="opacity:1;fill:none;fill-opacity:1;stroke:none;stroke-width:3;stroke-linecap:square;stroke-linejoin:miter;stroke-miterlimit:4;stroke-dasharray:none;stroke-opacity:1" />
    <path
       d="M 22,10 C 32.5,11 38.5,18 38,39 L 15,39 C 15,30 25,32.5 23,18"
       id="path3491"
       style="fill:#ffffff;fill-opacity:1;fill-rule:evenodd;stroke:#000000;stroke-width:1.5;stroke-linecap:round;stroke-linejoin:miter;stroke-miterlimit:4;stroke-dasharray:none;stroke-opacity:1" />
    <path
       d="M 24,18 C 24.384461,20.911278 18.447064,25.368624 16,27 C 13,29 13.180802,31.342892 11,31 C 9.95828,30.055984 12.413429,27.962451 11,28 C 10,28 11.187332,29.231727 10,30 C 9,30 5.9968392,30.999999 6,26 C 6,24 12,14 12,14 C 12,14 13.885866,12.097871 14,10.5 C 13.273953,9.505631 13.5,8.5 13.5,7.5 C 14.5,6.5 16.5,10 16.5,10 L 18.5,10 C 18.5,10 19.281781,8.0080745 21,7 C 22,7 22,10 22,10"
       id="path3495"
       style="fill:#ffffff;fill-opacity:1;fill-rule:evenodd;stroke:#000000;stroke-width:1.5;stroke-linecap:round;stroke-linejoin:round;stroke-miterlimit:4;stroke-dasharray:none;stroke-opacity:1" />
    <path
       d="M 9,23.5 A 0.5,0.5 0 1 1 8,23.5 A 0.5,0.5 0 1 1 9,23.5 z"
       transform="translate(0.5,2)"
       id="path3499"
       style="opacity:1;fill:#000000;fill-opacity:1;stroke:#000000;stroke-width:1.5;stroke-linecap:round;stroke-linejoin:round;stroke-miterlimit:4;stroke-dasharray:none;stroke-opacity:1" />
    <path
       d="M 15,15.5 A 0.5,1.5 0 1 1 14,15.5 A 0.5,1.5 0 1 1 15,15.5 z"
       transform="matrix(0.866025,0.5,-0.5,0.866025,9.692632,-5.173394)"
       id="path3501"
       style="opacity:1;fill:#000000;fill-opacity:1;stroke:#000000;stroke-width:1.50000048;stroke-linecap:round;stroke-linejoin:round;stroke-miterlimit:4;stroke-dasharray:none;stroke-opacity:1" />
    <path
       d="M 37,39 C 38,19 31.5,11.5 25,10.5"
       id="path8049"
       style="fill:none;fill-opacity:0.75;fill-rule:evenodd;stroke:#000000;stroke-width:1;stroke-linecap:round;stroke-linejoin:miter;stroke-miterlimit:4;stroke-dasharray:none;stroke-opacity:1" />
  </g>
</svg>
